<?xml version="1.0" standalone="no"?>
<!DOCTYPE svg PUBLIC "-//W3C//DTD SVG 20010904//EN"
 "http://www.w3.org/TR/2001/REC-SVG-20010904/DTD/svg10.dtd">
<svg version="1.0" xmlns="http://www.w3.org/2000/svg"
 width="746.000000pt" height="514.000000pt" viewBox="0 0 746.000000 514.000000"
 preserveAspectRatio="xMidYMid meet">

<g transform="translate(0.000000,514.000000) scale(0.100000,-0.100000)"
fill="#000000" stroke="none">
<path d="M0 2570 l0 -2570 3730 0 3730 0 0 2570 0 2570 -3730 0 -3730 0 0
-2570z m5080 1338 c-1 -1014 -2 -1111 -16 -1088 -45 71 -241 190 -344 209 -36
7 -88 24 -116 39 -51 26 -52 26 -90 9 -22 -10 -57 -18 -79 -20 l-40 -2 -12 85
c-7 47 -17 110 -23 141 -5 30 -10 108 -10 173 l0 117 -44 -30 c-43 -30 -44
-32 -61 -122 -9 -50 -17 -128 -17 -172 0 -70 4 -93 31 -156 34 -81 37 -91 19
-73 -7 7 -24 12 -40 12 -46 0 -52 25 -44 199 7 153 21 314 32 357 4 15 16 24
37 28 46 9 129 69 164 119 72 100 90 157 68 210 -5 12 -3 17 9 17 12 0 16 10
16 44 0 33 7 52 31 82 33 41 32 35 14 149 -4 25 -3 35 2 27 11 -14 67 -32 103
-32 30 0 123 100 118 127 -2 9 -32 41 -67 71 -47 40 -65 62 -66 82 -4 44 -67
118 -97 112 -3 -1 -4 32 -1 72 7 89 1 111 -25 97 -10 -5 -24 -21 -32 -36 l-14
-26 -16 21 -17 22 -21 -33 -21 -34 21 -8 c14 -5 24 -2 34 10 14 19 18 14 8
-11 -5 -12 -21 -16 -66 -16 -32 0 -72 -7 -87 -15 -16 -8 -61 -55 -101 -105
-79 -99 -165 -181 -216 -205 -34 -16 -52 -51 -41 -79 4 -9 0 -12 -11 -10 -9 3
-89 -39 -177 -91 -88 -53 -182 -102 -210 -109 -27 -8 -117 -30 -200 -50 -165
-40 -258 -79 -309 -132 -22 -23 -51 -77 -85 -162 -29 -70 -63 -146 -77 -169
-28 -48 -96 -108 -207 -182 -70 -47 -76 -54 -66 -72 6 -11 27 -28 47 -36 31
-13 49 -14 114 -5 120 17 164 46 212 140 13 26 15 40 6 71 -6 24 -7 48 -1 62
10 25 14 20 25 -32 3 -14 21 -43 41 -63 53 -57 43 -115 -34 -199 -23 -24 -41
-54 -41 -65 0 -12 11 -60 25 -107 35 -120 52 -250 35 -270 -7 -8 -19 -15 -26
-15 -11 0 -14 26 -15 128 -1 167 -11 192 -27 63 -7 -56 -20 -120 -28 -143 -8
-23 -12 -48 -10 -54 3 -8 -27 -23 -87 -43 -72 -24 -109 -31 -173 -31 -54 0
-95 -6 -120 -17 -22 -9 -57 -19 -79 -23 -22 -4 -55 -11 -72 -15 l-33 -7 0
1191 0 1191 1350 0 1350 0 0 -1112z m-455 611 c11 -17 -1 -21 -15 -4 -8 9 -8
15 -2 15 6 0 14 -5 17 -11z m-1002 -1020 c71 -19 100 -21 215 -16 149 6 133
14 147 -78 3 -22 24 -114 45 -205 22 -91 44 -186 48 -212 l9 -46 -41 -15 c-74
-28 -189 -56 -274 -67 -68 -9 -93 -8 -143 4 -84 22 -125 20 -221 -10 -69 -22
-85 -24 -103 -13 -11 7 -45 20 -75 29 l-55 16 -7 50 c-3 27 -7 86 -7 130 l-1
81 43 39 c23 22 70 61 104 88 61 47 107 108 133 174 15 37 54 72 82 72 10 0
56 -10 101 -21z m1457 -1439 l0 -420 -1350 0 -1350 0 0 413 c0 228 3 417 7
420 3 4 611 7 1350 7 l1343 0 0 -420z"/>
<path d="M2714 2238 c-60 -9 -60 -9 -56 -40 5 -30 6 -30 48 -24 l44 6 0 -130
0 -130 -45 0 c-43 0 -45 -1 -45 -30 l0 -30 126 0 125 0 -3 28 c-3 23 -8 27
-40 30 l-38 3 0 165 0 164 -27 -1 c-16 -1 -55 -6 -89 -11z"/>
<path d="M3250 2230 c-16 -16 -20 -33 -20 -80 0 -37 5 -64 14 -72 11 -11 10
-17 -7 -39 -16 -22 -19 -39 -15 -90 5 -75 16 -85 103 -94 82 -9 162 2 186 26
27 27 27 127 0 160 -16 19 -16 25 -5 37 9 8 14 36 14 73 0 90 -13 99 -145 99
-92 0 -108 -3 -125 -20z m188 -84 c2 -24 -2 -42 -10 -47 -20 -13 -92 -11 -106
3 -13 13 -16 70 -5 82 4 4 32 6 63 4 l55 -3 3 -39z m-7 -126 c14 -8 19 -21 19
-50 0 -21 -5 -42 -10 -45 -20 -12 -123 -7 -131 7 -15 24 -10 76 9 87 22 14 88
14 113 1z"/>
<path d="M3901 2233 c-29 -25 -39 -101 -17 -143 14 -28 14 -34 1 -47 -10 -10
-15 -36 -15 -82 0 -98 11 -106 150 -106 139 0 150 8 150 106 0 49 -4 72 -16
84 -13 13 -14 18 -3 31 7 9 12 41 12 77 -1 87 -16 97 -143 97 -78 0 -102 -3
-119 -17z m181 -68 c8 -19 8 -31 0 -50 -10 -22 -18 -25 -62 -25 -44 0 -52 3
-62 25 -8 19 -8 31 0 50 10 22 18 25 62 25 44 0 52 -3 62 -25z m-4 -144 c9 -5
12 -23 10 -52 -3 -40 -5 -44 -35 -50 -18 -4 -48 -4 -65 0 -31 6 -33 10 -36 50
-4 52 6 61 68 61 25 0 51 -4 58 -9z"/>
<path d="M4520 2140 l0 -110 88 2 c108 4 124 -6 120 -66 -3 -37 -6 -41 -35
-47 -52 -10 -97 3 -101 29 -3 19 -10 22 -44 22 l-41 0 6 -42 c3 -23 13 -48 22
-54 39 -29 212 -28 251 1 23 16 32 131 14 175 -15 36 -41 45 -132 45 l-68 0 0
47 0 48 64 0 c59 0 65 -2 68 -22 2 -18 11 -24 36 -26 l32 -3 0 55 0 56 -140 0
-140 0 0 -110z"/>
</g>
</svg>
