<?xml version="1.0" standalone="no"?>
<!DOCTYPE svg PUBLIC "-//W3C//DTD SVG 20010904//EN"
 "http://www.w3.org/TR/2001/REC-SVG-20010904/DTD/svg10.dtd">
<svg version="1.0" xmlns="http://www.w3.org/2000/svg"
 width="746.000000pt" height="514.000000pt" viewBox="0 0 746.000000 514.000000"
 preserveAspectRatio="xMidYMid meet">
<metadata>
Created by potrace 1.15, written by Peter Selinger 2001-2017
</metadata>
<g transform="translate(0.000000,514.000000) scale(0.100000,-0.100000)"
fill="#000000" stroke="none">
<path d="M2270 3330 l0 -1810 1465 0 1465 0 0 1810 0 1810 -1465 0 -1465 0 0
-1810z m2810 587 l0 -1103 -57 54 c-84 77 -212 148 -297 163 -37 6 -87 22
-110 35 -46 26 -77 30 -109 12 -12 -6 -41 -15 -64 -18 -38 -6 -42 -5 -48 17
-18 75 -39 245 -42 361 -3 73 -8 132 -11 130 -4 -2 -23 -14 -43 -28 -43 -29
-54 -65 -72 -237 -11 -112 -11 -112 17 -180 16 -37 30 -74 33 -80 4 -9 -6 -13
-31 -13 -29 0 -38 5 -45 24 -12 29 4 388 20 481 8 46 16 68 28 71 102 31 175
97 231 208 42 83 42 83 25 116 -15 29 -15 32 -1 27 13 -5 16 1 16 34 0 44 11
72 43 106 16 18 19 31 14 70 -4 26 -10 59 -13 72 -7 24 -7 24 17 8 14 -10 43
-17 72 -17 45 0 52 3 92 48 65 69 62 88 -26 158 -47 38 -59 53 -59 76 0 19
-13 42 -41 73 -23 25 -47 45 -53 45 -7 0 -10 27 -8 86 3 78 2 85 -14 82 -10
-2 -28 -18 -40 -36 -21 -30 -23 -31 -29 -12 -8 27 -19 25 -44 -6 -31 -39 -27
-57 8 -52 17 2 28 1 25 -4 -3 -4 -35 -8 -72 -8 l-67 0 -65 -72 c-116 -128
-237 -246 -261 -253 -30 -10 -39 -23 -39 -58 0 -16 -4 -26 -9 -23 -5 3 -84
-40 -176 -95 -145 -87 -179 -103 -254 -121 -312 -72 -422 -115 -479 -183 -15
-19 -45 -78 -66 -132 -84 -208 -125 -262 -289 -368 -42 -27 -77 -55 -77 -61 0
-6 11 -21 24 -33 32 -30 97 -37 178 -21 99 19 140 47 179 122 15 29 18 50 13
100 -4 46 -3 59 5 48 6 -8 11 -23 11 -32 0 -10 17 -36 37 -59 57 -63 47 -121
-36 -207 -23 -23 -41 -46 -41 -50 0 -5 7 -31 15 -58 17 -55 19 -76 6 -56 -5 9
-11 -9 -15 -50 -3 -34 -16 -107 -28 -160 l-22 -98 -91 -30 c-71 -24 -107 -30
-173 -30 -58 0 -92 -5 -115 -17 -18 -9 -54 -20 -82 -24 -27 -4 -58 -10 -67
-14 -17 -7 -18 54 -18 1184 l0 1191 1345 0 1345 0 0 -1103z m-1455 -423 c43
-11 100 -14 202 -12 l141 3 17 -90 c9 -49 31 -153 50 -230 19 -77 37 -158 41
-181 7 -48 10 -46 -146 -90 -101 -29 -225 -35 -375 -20 -60 7 -81 4 -148 -17
l-79 -25 -51 24 c-29 13 -62 24 -73 24 -29 0 -31 8 -39 137 -5 75 -4 117 4
131 6 12 49 51 95 87 98 76 143 124 163 174 25 65 37 82 63 96 26 14 36 13
135 -11z m1455 -1439 l0 -415 -1345 0 -1345 0 0 415 0 415 1345 0 1345 0 0
-415z"/>
<path d="M3295 2253 c-52 -8 -65 -28 -65 -103 0 -36 5 -71 11 -77 9 -9 8 -16
-5 -28 -12 -12 -16 -35 -16 -84 0 -92 13 -103 125 -109 96 -5 148 2 170 24 22
22 21 147 -1 169 -13 12 -14 19 -5 28 6 6 11 41 11 77 0 89 -12 99 -116 104
-43 3 -92 2 -109 -1z"/>
<path d="M3932 2250 c-19 -4 -39 -13 -44 -18 -16 -16 -22 -106 -10 -141 8 -24
7 -37 -5 -62 -20 -40 -13 -133 11 -157 14 -14 37 -17 136 -17 99 0 122 3 136
17 24 24 31 117 11 157 -12 25 -13 38 -5 62 12 35 6 125 -9 140 -25 25 -150
36 -221 19z"/>
<path d="M2707 2240 c-27 -5 -51 -11 -53 -13 -3 -3 -2 -17 2 -32 6 -25 10 -27
50 -23 l44 3 0 -127 0 -128 -45 0 c-43 0 -45 -1 -45 -30 l0 -30 125 0 125 0 0
30 c0 28 -2 30 -40 30 l-40 0 0 165 0 165 -37 -1 c-21 -1 -60 -5 -86 -9z"/>
<path d="M4520 2140 l0 -110 95 0 c102 0 115 -7 115 -62 0 -36 -19 -48 -72
-48 -42 0 -50 3 -60 25 -9 20 -18 25 -50 25 -37 0 -38 -1 -38 -34 0 -19 9 -44
19 -57 18 -23 26 -24 131 -24 105 0 113 1 131 24 27 33 27 159 0 192 -17 22
-27 24 -105 24 l-86 0 0 43 0 42 65 0 c58 0 65 -2 65 -20 0 -16 7 -20 35 -20
l35 0 0 55 0 55 -140 0 -140 0 0 -110z"/>
<path d="M0 910 l0 -60 40 0 40 0 0 -270 0 -270 -40 0 -40 0 0 -55 0 -55 160
0 160 0 0 54 0 55 -42 3 -43 3 -2 235 -1 235 96 -293 96 -293 80 3 80 3 76
240 c41 132 83 263 92 290 16 49 16 47 17 -187 l1 -238 -40 0 -40 0 0 -55 0
-55 160 0 160 0 0 54 0 55 -42 3 -43 3 -3 268 -2 267 45 0 45 0 0 60 0 60
-167 -2 -166 -3 -79 -260 c-43 -143 -81 -267 -84 -275 -3 -8 -29 64 -59 160
-29 96 -67 221 -84 278 l-32 102 -169 0 -170 0 0 -60z"/>
<path d="M1930 915 l0 -55 40 0 40 0 0 -280 0 -280 -40 0 -40 0 0 -50 0 -50
150 0 150 0 0 50 0 50 -40 0 -40 0 0 148 0 149 42 19 c55 25 131 25 155 1 15
-15 19 -40 21 -167 l4 -150 -41 0 -41 0 0 -50 0 -50 145 0 145 0 0 50 0 50
-35 0 -35 0 -1 163 c-1 260 -19 292 -158 292 -68 0 -86 -4 -140 -32 l-61 -32
0 140 0 139 -110 0 -110 0 0 -55z"/>
<path d="M1158 950 c-27 -16 -25 -115 1 -130 30 -16 107 -12 125 6 17 17 22
90 7 113 -11 18 -109 26 -133 11z"/>
<path d="M2718 949 c-14 -8 -18 -23 -18 -64 0 -63 13 -75 80 -75 67 0 80 12
80 75 0 43 -4 56 -19 65 -25 13 -101 13 -123 -1z"/>
<path d="M5090 835 l0 -125 65 0 65 0 0 54 c0 83 3 86 76 86 l64 0 0 -270 0
-270 -40 0 -40 0 0 -55 0 -55 165 0 165 0 0 55 0 55 -45 0 -45 0 2 268 3 267
66 3 66 3 7 -32 c3 -17 6 -49 6 -70 l0 -39 65 0 65 0 0 125 0 125 -355 0 -355
0 0 -125z"/>
<path d="M6830 900 l0 -50 40 0 40 0 0 -275 0 -275 -40 0 -40 0 0 -50 0 -50
145 0 145 0 0 50 0 50 -40 0 -40 0 0 146 0 145 38 16 c62 26 123 28 152 5 24
-20 25 -25 28 -166 l4 -146 -41 0 -41 0 0 -50 0 -50 140 0 140 0 0 50 0 50
-35 0 -35 0 0 183 c0 163 -2 185 -20 214 -38 63 -176 70 -277 13 l-53 -30 0
135 0 135 -105 0 -105 0 0 -50z"/>
<path d="M1525 736 c-95 -27 -121 -96 -113 -307 5 -138 16 -172 71 -213 24
-18 45 -22 145 -24 196 -6 243 19 250 135 4 65 4 66 -19 60 -13 -4 -43 -7 -66
-7 -39 0 -43 -2 -43 -24 0 -42 -25 -56 -96 -56 -49 0 -68 4 -83 19 -24 24 -36
119 -26 208 9 88 33 113 107 113 66 0 98 -20 98 -61 0 -28 2 -29 43 -29 75 0
87 7 87 51 0 63 -24 107 -67 126 -52 22 -222 27 -288 9z"/>
<path d="M3086 740 c-82 -25 -110 -104 -104 -289 4 -139 16 -173 71 -215 24
-18 43 -21 116 -21 79 0 92 3 129 28 l42 27 0 -49 c0 -96 -25 -122 -115 -122
-64 0 -91 12 -99 46 -6 23 -11 25 -66 25 l-60 0 0 -35 c0 -20 7 -51 15 -71 22
-53 59 -64 217 -64 152 0 189 11 223 70 18 32 20 57 25 300 l5 265 33 3 c31 3
32 4 32 53 l0 49 -105 0 -105 0 0 -27 0 -26 -22 20 c-42 38 -158 55 -232 33z
m223 -121 l31 -11 0 -123 c0 -100 -3 -125 -16 -136 -18 -15 -121 -25 -159 -15
-36 9 -55 59 -55 145 0 76 12 119 37 139 21 15 119 16 162 1z"/>
<path d="M3731 740 c-81 -17 -105 -45 -118 -138 -5 -40 -4 -45 11 -39 10 4 39
7 64 7 43 0 48 3 62 33 12 26 23 33 54 38 49 8 107 -5 123 -27 7 -10 13 -37
13 -60 l0 -42 -117 -4 c-140 -5 -195 -25 -219 -83 -20 -48 -18 -123 4 -164 48
-90 207 -97 320 -15 22 16 22 16 22 -15 l0 -31 105 0 105 0 0 50 0 50 -40 0
-40 0 0 163 c-1 249 -20 276 -210 283 -52 2 -115 -1 -139 -6z m207 -352 c-3
-41 -5 -44 -61 -72 -49 -25 -63 -28 -94 -20 -24 6 -43 19 -52 36 -14 25 -14
29 5 55 25 33 49 41 137 42 l68 1 -3 -42z"/>
<path d="M4554 740 c-18 -4 -52 -19 -78 -33 l-46 -26 0 30 0 29 -105 0 -105 0
0 -49 c0 -49 1 -50 33 -53 l32 -3 3 -167 2 -168 -35 0 -35 0 0 -50 0 -50 145
0 145 0 0 50 0 50 -40 0 -40 0 0 146 0 145 38 16 c58 25 117 28 147 9 25 -16
25 -17 25 -166 l0 -150 -35 0 -35 0 0 -50 0 -50 145 0 145 0 0 50 0 50 -40 0
-40 0 0 178 c0 205 -9 238 -70 259 -39 13 -109 15 -156 3z"/>
<path d="M5928 741 c-49 -10 -84 -34 -105 -74 -15 -27 -18 -58 -18 -197 0
-143 3 -170 19 -204 30 -60 75 -76 216 -75 63 0 130 5 149 12 46 16 73 55 79
116 l5 51 -67 0 c-63 0 -66 -1 -66 -24 0 -36 -35 -56 -98 -56 -68 0 -89 12
-102 58 -21 75 -27 72 138 72 210 0 196 -8 190 115 -8 141 -33 184 -118 204
-50 12 -166 12 -222 2z m154 -101 c39 -11 58 -44 58 -101 l0 -29 -106 0 -106
0 7 48 c10 66 30 85 95 91 8 0 31 -4 52 -9z"/>
<path d="M6458 741 c-44 -9 -83 -33 -103 -65 -22 -33 -36 -174 -29 -276 13
-176 52 -209 241 -210 177 0 215 24 229 146 l7 57 -33 -6 c-18 -4 -48 -7 -66
-7 -26 0 -34 -4 -34 -18 0 -10 -7 -28 -16 -40 -13 -19 -24 -22 -83 -22 -101 0
-106 8 -106 172 0 124 1 131 24 149 36 30 124 27 156 -6 14 -13 25 -33 25 -45
0 -17 6 -20 43 -20 23 0 53 3 66 7 22 6 23 9 16 57 -13 101 -51 127 -199 132
-56 2 -117 0 -138 -5z"/>
<path d="M1080 691 c0 -49 1 -50 33 -53 l32 -3 3 -167 2 -168 -35 0 -35 0 0
-50 0 -50 145 0 145 0 0 50 0 50 -40 0 -40 0 0 220 0 220 -105 0 -105 0 0 -49z"/>
<path d="M2640 690 c0 -46 2 -50 24 -50 56 0 56 1 56 -176 l0 -164 -40 0 -40
0 0 -50 0 -50 145 0 145 0 0 50 0 50 -40 0 -40 0 0 220 0 220 -105 0 -105 0 0
-50z"/>
</g>
</svg>
